<svg width="10" height="10" viewBox="0 0 10 10" fill="none" xmlns="http://www.w3.org/2000/svg">
<path d="M0.392318 8.1608C0.643166 7.59946 1.00719 7.08958 1.46412 6.65955C1.91966 6.22828 2.45929 5.88443 3.0532 5.64698C3.05852 5.64447 3.06384 5.64322 3.06916 5.6407C2.24071 5.07538 1.70215 4.15452 1.70215 3.11558C1.70215 1.39447 3.1782 0 5 0C6.8218 0 8.29785 1.39447 8.29785 3.11558C8.29785 4.15452 7.75929 5.07538 6.93084 5.64196C6.93616 5.64447 6.94148 5.64573 6.9468 5.64824C7.54254 5.88568 8.07711 6.22613 8.53588 6.6608C8.99238 7.09116 9.35635 7.60097 9.60768 8.16206C9.85459 8.71137 9.98776 9.30031 9.99997 9.89698C10.0003 9.91039 9.99783 9.92373 9.99265 9.93622C9.98746 9.9487 9.97968 9.96008 9.96976 9.96968C9.95985 9.97928 9.948 9.98691 9.93492 9.99212C9.92184 9.99732 9.90778 10 9.89358 10H9.09572C9.03721 10 8.99066 9.95603 8.98934 9.90201C8.96274 8.93216 8.55051 8.02387 7.82179 7.33543C7.06781 6.62312 6.06648 6.23116 5 6.23116C3.93352 6.23116 2.93219 6.62312 2.17821 7.33543C1.44949 8.02387 1.03726 8.93216 1.01066 9.90201C1.00933 9.95729 0.962793 10 0.904282 10H0.106415C0.0922184 10 0.0781639 9.99732 0.0650805 9.99212C0.0519972 9.98691 0.0401496 9.97928 0.0302355 9.96968C0.0203214 9.96008 0.0125419 9.9487 0.00735478 9.93622C0.00216771 9.92373 -0.000321876 9.91039 3.30481e-05 9.89698C0.0133308 9.29648 0.144979 8.71231 0.392318 8.1608V8.1608ZM5 5.27638C5.61037 5.27638 6.18483 5.05151 6.61701 4.64322C7.04919 4.23492 7.28722 3.69221 7.28722 3.11558C7.28722 2.53894 7.04919 1.99623 6.61701 1.58794C6.18483 1.17965 5.61037 0.954774 5 0.954774C4.38963 0.954774 3.81517 1.17965 3.38299 1.58794C2.95081 1.99623 2.71278 2.53894 2.71278 3.11558C2.71278 3.69221 2.95081 4.23492 3.38299 4.64322C3.81517 5.05151 4.38963 5.27638 5 5.27638Z" fill="black"/>
</svg>
