<svg width="83" height="46" viewBox="0 0 83 46" fill="none" xmlns="http://www.w3.org/2000/svg">
<rect width="9" height="40" rx="1" fill="black"/>
<rect x="14" width="9" height="14" rx="1" fill="black"/>
<path d="M14 21H23" stroke="#FDA900"/>
<path d="M22.48 39H18.16C17.1733 39 16.4067 38.7267 15.86 38.18C15.3267 37.6333 15.06 36.8733 15.06 35.9V31.9C15.06 30.9133 15.3267 30.1533 15.86 29.62C16.4067 29.0733 17.1733 28.8 18.16 28.8H19.8C20.7867 28.8 21.5533 29.0733 22.1 29.62C22.6467 30.1533 22.92 30.9133 22.92 31.9V34.44C22.92 34.68 22.8 34.8 22.56 34.8H17.2C17.0533 34.8 16.98 34.8667 16.98 35V35.86C16.98 36.8333 17.4667 37.32 18.44 37.32H22.48C22.72 37.32 22.84 37.44 22.84 37.68V38.68C22.84 38.8933 22.72 39 22.48 39ZM17.2 33.44H20.78C20.9133 33.44 20.98 33.3733 20.98 33.24V31.96C20.98 31.4533 20.8667 31.0867 20.64 30.86C20.4133 30.62 20.0467 30.5 19.54 30.5H18.44C17.9333 30.5 17.5667 30.62 17.34 30.86C17.1133 31.0867 17 31.4533 17 31.96V33.24C17 33.3733 17.0667 33.44 17.2 33.44ZM32.3433 39H28.0233C27.0366 39 26.2699 38.7267 25.7233 38.18C25.1899 37.6333 24.9233 36.8733 24.9233 35.9V31.9C24.9233 30.9133 25.1899 30.1533 25.7233 29.62C26.2699 29.0733 27.0366 28.8 28.0233 28.8H29.6633C30.6499 28.8 31.4166 29.0733 31.9633 29.62C32.5099 30.1533 32.7833 30.9133 32.7833 31.9V34.44C32.7833 34.68 32.6633 34.8 32.4233 34.8H27.0633C26.9166 34.8 26.8433 34.8667 26.8433 35V35.86C26.8433 36.8333 27.3299 37.32 28.3033 37.32H32.3433C32.5833 37.32 32.7033 37.44 32.7033 37.68V38.68C32.7033 38.8933 32.5833 39 32.3433 39ZM27.0633 33.44H30.6433C30.7766 33.44 30.8433 33.3733 30.8433 33.24V31.96C30.8433 31.4533 30.7299 31.0867 30.5033 30.86C30.2766 30.62 29.9099 30.5 29.4033 30.5H28.3033C27.7966 30.5 27.4299 30.62 27.2033 30.86C26.9766 31.0867 26.8633 31.4533 26.8633 31.96V33.24C26.8633 33.3733 26.9299 33.44 27.0633 33.44ZM38.7866 39H37.7666C36.8066 39 36.0666 38.7333 35.5466 38.2C35.0399 37.6533 34.7866 36.8867 34.7866 35.9V31.9C34.7866 30.9 35.0399 30.1333 35.5466 29.6C36.0666 29.0667 36.8066 28.8 37.7666 28.8H38.7866C39.8132 28.8 40.4799 29.1533 40.7866 29.86H40.8666V25.28C40.8666 25.0533 40.9799 24.94 41.2066 24.94H42.4866C42.7132 24.94 42.8266 25.0533 42.8266 25.28V38.66C42.8266 38.8867 42.7132 39 42.4866 39H41.2066C40.9799 39 40.8666 38.8867 40.8666 38.66V37.94H40.7866C40.4799 38.6467 39.8132 39 38.7866 39ZM40.8666 35.6V32.2C40.8666 31.0667 40.3199 30.5 39.2266 30.5H38.1666C37.2066 30.5 36.7266 30.9933 36.7266 31.98V35.82C36.7266 36.8067 37.2066 37.3 38.1666 37.3H39.2266C40.3199 37.3 40.8666 36.7333 40.8666 35.6ZM47.1181 39H45.8781C45.6515 39 45.5381 38.8867 45.5381 38.66V26.48C45.5381 26.2533 45.6515 26.14 45.8781 26.14H46.9981C47.2115 26.14 47.3581 26.2133 47.4381 26.36L52.2781 35.06H52.3581V26.48C52.3581 26.2533 52.4715 26.14 52.6981 26.14H53.9381C54.1648 26.14 54.2781 26.2533 54.2781 26.48V38.66C54.2781 38.8867 54.1648 39 53.9381 39H52.8581C52.6448 39 52.4715 38.8933 52.3381 38.68L47.5381 30.08H47.4581V38.66C47.4581 38.8867 47.3448 39 47.1181 39ZM61.6583 39H59.8983C58.9116 39 58.1449 38.7267 57.5983 38.18C57.0649 37.6333 56.7983 36.8733 56.7983 35.9V31.9C56.7983 30.9133 57.0649 30.1533 57.5983 29.62C58.1449 29.0733 58.9116 28.8 59.8983 28.8H61.6583C62.6316 28.8 63.3916 29.0733 63.9383 29.62C64.4983 30.1533 64.7783 30.9133 64.7783 31.9V35.9C64.7783 36.8733 64.4983 37.6333 63.9383 38.18C63.3916 38.7267 62.6316 39 61.6583 39ZM60.1783 37.3H61.3983C62.3583 37.3 62.8383 36.8133 62.8383 35.84V31.96C62.8383 30.9867 62.3583 30.5 61.3983 30.5H60.1783C59.6716 30.5 59.3049 30.62 59.0783 30.86C58.8516 31.0867 58.7383 31.4533 58.7383 31.96V35.84C58.7383 36.3467 58.8516 36.72 59.0783 36.96C59.3049 37.1867 59.6716 37.3 60.1783 37.3ZM67.3764 30.5H66.4164C66.2831 30.5 66.1897 30.48 66.1364 30.44C66.0964 30.3867 66.0764 30.3 66.0764 30.18V29.14C66.0764 28.9133 66.1897 28.8 66.4164 28.8H67.3764C67.5097 28.8 67.5764 28.7333 67.5764 28.6V26.8C67.5764 26.5733 67.6964 26.46 67.9364 26.46H69.1964C69.4231 26.46 69.5364 26.5733 69.5364 26.8V28.6C69.5364 28.7333 69.6097 28.8 69.7564 28.8H71.6164C71.8564 28.8 71.9764 28.9133 71.9764 29.14V30.18C71.9764 30.3933 71.8564 30.5 71.6164 30.5H69.7564C69.6097 30.5 69.5364 30.5667 69.5364 30.7V35.84C69.5364 36.8133 70.0364 37.3 71.0364 37.3H71.8164C72.0564 37.3 72.1764 37.4133 72.1764 37.64V38.68C72.1764 38.8933 72.0564 39 71.8164 39H70.7364C69.7497 39 68.9764 38.7333 68.4164 38.2C67.8564 37.6667 67.5764 36.9133 67.5764 35.94V30.7C67.5764 30.5667 67.5097 30.5 67.3764 30.5ZM81.3081 39H76.9881C76.0015 39 75.2348 38.7267 74.6881 38.18C74.1548 37.6333 73.8881 36.8733 73.8881 35.9V31.9C73.8881 30.9133 74.1548 30.1533 74.6881 29.62C75.2348 29.0733 76.0015 28.8 76.9881 28.8H78.6281C79.6148 28.8 80.3815 29.0733 80.9281 29.62C81.4748 30.1533 81.7481 30.9133 81.7481 31.9V34.44C81.7481 34.68 81.6281 34.8 81.3881 34.8H76.0281C75.8815 34.8 75.8081 34.8667 75.8081 35V35.86C75.8081 36.8333 76.2948 37.32 77.2681 37.32H81.3081C81.5481 37.32 81.6681 37.44 81.6681 37.68V38.68C81.6681 38.8933 81.5481 39 81.3081 39ZM76.0281 33.44H79.6081C79.7415 33.44 79.8081 33.3733 79.8081 33.24V31.96C79.8081 31.4533 79.6948 31.0867 79.4681 30.86C79.2415 30.62 78.8748 30.5 78.3681 30.5H77.2681C76.7615 30.5 76.3948 30.62 76.1681 30.86C75.9415 31.0867 75.8281 31.4533 75.8281 31.96V33.24C75.8281 33.3733 75.8948 33.44 76.0281 33.44Z" fill="black"/>
</svg>
